<svg xmlns="http://www.w3.org/2000/svg" viewBox="0 0 512 512">
  <defs>
    <linearGradient id="grad" x1="0%" y1="0%" x2="100%" y2="100%">
      <stop offset="0%" style="stop-color:#00f0ff;stop-opacity:1" />
      <stop offset="100%" style="stop-color:#7000ff;stop-opacity:1" />
    </linearGradient>
  </defs>
  <circle cx="256" cy="256" r="256" fill="url(#grad)" />
  <path d="M256 0 C397.385 0 512 114.615 512 256 C512 397.385 397.385 512 256 512 C114.615 512 0 397.385 0 256 C0 114.615 114.615 0 256 0 Z M256 24 C287.6 24 316.4 127.8 316.4 256 C316.4 384.2 287.6 488 256 488 C224.4 488 195.6 384.2 195.6 256 C195.6 127.8 224.4 24 256 24 Z M481.6 232 L320.6 232 C318.4 135 292.8 52.8 256 52.8 C219.2 52.8 193.6 135 191.4 232 L30.4 232 C34.6 122 133 32.8 256 32.8 C379 32.8 477.4 122 481.6 232 Z M481.6 280 C477.4 390 379 479.2 256 479.2 C133 479.2 34.6 390 30.4 280 L191.4 280 C193.6 377 219.2 459.2 256 459.2 C292.8 459.2 318.4 377 320.6 280 L481.6 280 Z" fill="white" fill-opacity="0.3"/>
</svg>
